<?xml version="1.0" encoding="iso-8859-1"?>
<!-- Uploaded to: SVG Repo, www.svgrepo.com, Generator: SVG Repo Mixer Tools -->
<!DOCTYPE svg PUBLIC "-//W3C//DTD SVG 1.1//EN" "http://www.w3.org/Graphics/SVG/1.1/DTD/svg11.dtd">
<svg fill="#000000" version="1.1" id="Capa_1" xmlns="http://www.w3.org/2000/svg" xmlns:xlink="http://www.w3.org/1999/xlink" width="1000px" height="1000px" viewBox="0 0 1000 1000" xml:space="preserve">
<path d="M781.6,953.8V45.9C781.6,20.6,761.5,0,736.3,0H263c-25.2,0-45.9,20.6-45.9,45.9v907.9c0,25.2,20.6,45.9,45.9,45.9h473.3 C761.5,999.7,781.6,979.1,781.6,953.8z M242.6,953.8V45.9c0-11.4,9.3-20.6,20.6-20.6h473.3c11.4,0,20.6,9.3,20.6,20.6v907.9 c0,11.4-9.3,20.6-20.6,20.6H263C252.3,974.5,242.6,965.2,242.6,953.8z"/>
<path d="M745.5,843.9V99.6c0-3.5-2.8-6.2-6.2-6.2H260.6c-3.4,0-6.2,2.8-6.2,6.2v744.3c0,3.5,2.8,6.2,6.2,6.2h478.7 C742.6,850.2,745.5,847.4,745.5,843.9z M717.2,838.7H285c-9.3,0-16.8-7.5-16.8-16.8V122.5c0-9.3,7.5-16.8,16.8-16.8h436.4 c9.3,0,16.8,7.5,16.8,16.8v699.4C734,831.2,726.5,838.7,717.2,838.7z"/>
<path d="M472.1,63.9c8.1,2.4,18.3,3.7,30.6,3.7s22.5-1.2,30.6-3.7c5.3-1.6,7.2-5.1,7.1-8c-0.1-2.9-2.3-6.4-8.4-7.5 c-6.7-1.4-17.4-3.2-30.2-3.5l-2.6,0c-12,0-21.8,1.7-27.8,3.2c-6,1.5-8.2,5.3-8.3,8.5C465,58.2,466.6,62.3,472.1,63.9z M502.5,52.9 c5,0.1,9.6,0.4,13.7,0.9c7.6,0.8,7.7,3.8,0.1,4.5c-4.2,0.4-8.8,0.7-13.8,0.7s-9.8-0.3-14.1-0.9c-7.8-0.8-8.3-3.9-1.2-4.7 c4-0.4,8.4-0.6,13.2-0.6l2.1,0z"/>
<path d="M706.5,70.9c8.1,0,14.7-6.6,14.7-14.7c0-8.1-6.6-14.7-14.7-14.7s-14.7,6.6-14.7,14.7C692,64.3,698.5,70.9,706.5,70.9z M706.5,49.1c3.4,0,6.2,2.8,6.2,6.2s-2.8,6.2-6.2,6.2s-6.2-2.8-6.2-6.2S703.1,49.1,706.5,49.1z"/>
<path d="M707.1,70.8c8.1,0,14.7-6.6,14.7-14.7s-6.6-14.7-14.7-14.7-14.7,6.6-14.7,14.7S698.9,70.8,707.1,70.8z M707.1,49.1c3.4,0,6.2,2.8,6.2,6.2s-2.8,6.2-6.2,6.2-6.2-2.8-6.2-6.2S703.7,49.1,707.1,49.1z"/>
<circle cx="500" cy="910" r="40" stroke="black" stroke-width="2" fill="black" />
</svg>